<?xml version="1.0" standalone="no"?>
<!DOCTYPE svg PUBLIC "-//W3C//DTD SVG 20010904//EN"
 "http://www.w3.org/TR/2001/REC-SVG-20010904/DTD/svg10.dtd">
<svg version="1.0" xmlns="http://www.w3.org/2000/svg"
 width="241.000000pt" height="241.000000pt" viewBox="0 0 241.000000 241.000000"
 preserveAspectRatio="xMidYMid meet">
<metadata>
Created by potrace 1.11, written by Peter Selinger 2001-2013
</metadata>
<g transform="translate(0.000000,241.000000) scale(0.100000,-0.100000)"
fill="#000000" stroke="none">
<path d="M1134 2301 c-22 -10 -101 -54 -175 -98 -142 -85 -431 -252 -514 -298
-214 -118 -228 -144 -227 -390 1 -100 1 -524 1 -681 -1 -138 11 -177 73 -236
27 -26 60 -53 73 -60 13 -7 52 -29 87 -49 35 -20 86 -49 113 -64 45 -24 309
-174 353 -200 9 -6 35 -22 57 -36 60 -39 156 -86 190 -93 77 -17 83 -16 156
21 41 20 80 43 87 50 7 7 17 13 22 13 9 0 73 40 97 60 7 5 16 10 20 10 5 0 32
15 61 34 28 19 52 33 52 30 0 -3 12 3 28 14 15 11 108 66 207 122 236 135 261
153 287 203 22 42 23 47 24 522 0 264 -3 501 -8 528 -7 34 -20 58 -47 85 -36
36 -152 112 -172 112 -5 0 -9 5 -9 10 0 6 -3 9 -7 8 -5 -1 -19 5 -33 14 -26
16 -300 176 -380 221 -25 13 -86 50 -136 80 -86 53 -174 87 -218 87 -12 0 -39
-9 -62 -19z"/>
</g>
</svg>
